<?xml version="1.0" encoding="UTF-8" standalone="no"?><!DOCTYPE svg PUBLIC "-//W3C//DTD SVG 1.1//EN" "http://www.w3.org/Graphics/SVG/1.1/DTD/svg11.dtd"><svg width="100%" height="100%" viewBox="0 0 917 917" version="1.1" xmlns="http://www.w3.org/2000/svg" xmlns:xlink="http://www.w3.org/1999/xlink" xml:space="preserve" xmlns:serif="http://www.serif.com/" style="fill-rule:evenodd;clip-rule:evenodd;stroke-linejoin:round;stroke-miterlimit:2;"><g id="Layer1"><ellipse cx="458.333" cy="458.333" rx="441.667" ry="429.167" style="fill:#fff;"/></g><g><circle cx="342.09" cy="458.333" r="164.184" style="fill:#ff362c;"/><circle cx="574.576" cy="458.333" r="164.184" style="fill:#99dcd6;"/><path d="M410.285,458.333c-0.005,43.501 17.291,85.266 48.048,116.028c63.485,-63.726 63.485,-168.33 0,-232.055c-30.757,30.762 -48.053,72.527 -48.048,116.027Z" style="fill:#992f25;fill-rule:nonzero;"/></g><g><path d="M466.063,399.573l32.541,0c0.881,-0.093 1.727,0.398 2.084,1.209c11.833,20.833 23.708,41.166 35.458,61.791c3.083,5.417 5.708,11.084 8.333,16.667c0,0.417 0.459,0.792 0.584,1.042l-0,-80.709l26.541,0l0,117.375l-32.083,0c-0.891,0.087 -1.74,-0.422 -2.083,-1.25c-11.75,-20.5 -23.625,-41 -35.292,-61.541c-3.125,-5.459 -5.792,-11.125 -8.625,-16.667c-0.25,-0.417 -0.458,-0.875 -0.625,-1.125c0.167,26.75 0.333,53.583 0.5,80.5l-27.125,0l-0.208,-117.292Z" style="fill-rule:nonzero;"/><path d="M278.063,466.49c-4.167,5 -8,9.917 -12.125,14.667c-1.558,1.677 -2.357,3.924 -2.209,6.208l0,29.5l-30.541,0l-0,-117.292l30.541,0l0,51.917l1.125,-1.25c13.195,-16.361 26.389,-32.736 39.584,-49.125c0.762,-1.119 2.064,-1.755 3.416,-1.667l31.875,0c-0.5,0.584 -0.791,1 -1.083,1.375l-37.5,44.917c-0.471,0.38 -0.745,0.953 -0.745,1.558c-0,0.484 0.176,0.953 0.495,1.317l40.125,66.667c0.292,0.458 0.542,0.958 0.917,1.583l-33.084,0c-0.979,0.093 -1.916,-0.443 -2.333,-1.333c-9.139,-15.889 -18.306,-31.764 -27.5,-47.625l-0.958,-1.417Z" style="fill-rule:nonzero;"/><path d="M114.521,498.032l15.667,-19.25c0.875,0.833 1.666,1.625 2.5,2.333c12.003,10.575 28.013,15.456 43.875,13.375c2.419,-0.316 4.761,-1.064 6.916,-2.208c2.917,-1.6 4.736,-4.674 4.736,-8c-0,-3.327 -1.819,-6.4 -4.736,-8c-3.983,-1.805 -8.185,-3.08 -12.5,-3.792c-8.875,-2.125 -17.833,-4.167 -26.625,-6.583c-3.967,-1.202 -7.762,-2.91 -11.291,-5.084c-9.399,-5.273 -14.762,-15.704 -13.584,-26.416c0.536,-13.264 8.653,-25.099 20.834,-30.375c6.632,-3.319 13.852,-5.302 21.25,-5.834c10.369,-1.061 20.845,-0.228 30.916,2.459c10.218,2.747 19.542,8.12 27.042,15.583l1.167,1.208l-15.375,18.834c-2.209,-1.875 -4.167,-3.709 -6.375,-5.375c-10.629,-8.224 -24.324,-11.435 -37.5,-8.792c-2.282,0.385 -4.455,1.252 -6.375,2.542c-2.548,1.494 -4.118,4.235 -4.118,7.188c0,3.106 1.736,5.964 4.493,7.395c3.616,1.992 7.526,3.399 11.583,4.167c8.708,2.083 17.458,4.166 26.083,6.291c5.979,1.607 11.557,4.445 16.375,8.334c6.005,4.699 9.662,11.799 10,19.416c0.454,4.987 -0.084,10.015 -1.583,14.792c-3.187,9.636 -10.44,17.407 -19.833,21.25c-7.368,3.236 -15.291,5.018 -23.334,5.25c-14.143,0.887 -28.296,-1.598 -41.291,-7.25c-7.098,-3.253 -13.517,-7.82 -18.917,-13.458Z" style="fill-rule:nonzero;"/><path d="M682.938,397.865l30.791,0c0.959,0 1.417,0 1.709,1.167c8.944,30.333 17.944,60.653 27,90.958c-0,0.5 0.291,1 0.541,1.833c0.215,-0.444 0.396,-0.903 0.542,-1.375c7.458,-28.375 16.667,-56.208 25,-84.291c0.75,-2.459 1.5,-4.875 2.208,-7.292c0.057,-0.572 0.544,-1.013 1.12,-1.013c0.057,-0 0.115,0.004 0.172,0.013l30.125,0l-0.5,1.5c-13.528,38.167 -27.056,76.32 -40.583,114.458c-0.189,1.025 -1.182,1.718 -2.209,1.542l-32.666,0c-1.042,0 -1.584,0 -1.959,-1.292c-13.639,-38.333 -27.278,-76.638 -40.916,-114.916l-0.375,-1.292Z" style="fill-rule:nonzero;"/><path d="M455.646,399.573c-0.333,0.667 -0.542,1.125 -0.792,1.542c-13.25,23.833 -26.5,47.681 -39.75,71.542c-0.575,1.063 -0.89,2.249 -0.916,3.458l-0,40.833l-30.625,0l-0,-41.375c-0.002,-0.935 -0.247,-1.853 -0.709,-2.666c-13.194,-23.834 -26.416,-47.639 -39.666,-71.417c-0.334,-0.542 -0.625,-1.125 -1,-1.833l30.291,-0c0.839,-0.098 1.645,0.382 1.959,1.166c5.166,10.167 10.5,20.25 15.541,30.459c3,6 5.542,12.166 8.334,18.291c0.25,0.5 0.5,1 0.833,1.75c0.242,-0.377 0.465,-0.766 0.667,-1.166c7.166,-16.667 15.833,-32.792 24.083,-49.042c0.358,-0.973 1.345,-1.58 2.375,-1.458l29.5,-0l-0.125,-0.084Z" style="fill-rule:nonzero;"/><path d="M701.271,515.615c-13.389,-38.25 -26.778,-76.5 -40.167,-114.75c-0.132,-0.825 -0.851,-1.438 -1.687,-1.438c-0.091,-0 -0.181,0.007 -0.271,0.021l-33.833,0c-0.89,-0.151 -1.749,0.447 -1.917,1.334c-13.167,37.583 -26.361,75.153 -39.583,112.708c-0.417,1.083 -0.792,2.208 -1.209,3.458l29.167,0c0.103,0.019 0.207,0.028 0.311,0.028c0.884,-0 1.642,-0.654 1.772,-1.528c2.375,-7.875 4.875,-15.708 7.292,-23.583c0.093,-0.886 0.849,-1.568 1.74,-1.568c0.101,0 0.202,0.009 0.302,0.026l37.5,0c1.166,0 1.708,0.292 2.041,1.5c2.334,7.834 4.792,15.667 7.125,23.5c0.097,0.93 0.889,1.644 1.824,1.644c0.087,-0 0.173,-0.006 0.26,-0.019l29.833,0c-0.25,-0.5 -0.375,-0.708 -0.5,-1.333Zm-72.958,-46.042c4.527,-15.5 9.083,-30.972 13.666,-46.416l13.709,46.416l-27.375,0Z" style="fill-rule:nonzero;"/></g></svg>